<svg width="60" height="58" viewBox="0 0 60 58" fill="none" xmlns="http://www.w3.org/2000/svg">
<rect width="5.96968" height="21.4466" rx="2.98484" transform="matrix(-0.87462 -0.48481 -0.48481 0.87462 34.1716 38.3065)" fill="#0033A0"/>
<rect x="26.0503" y="38.3065" width="5.96968" height="21.4466" rx="2.98484" transform="rotate(-29 26.0503 38.3065)" fill="#F2A800"/>
<rect x="39.7412" y="27.899" width="5.96968" height="21.4466" rx="2.98484" transform="rotate(-147.452 39.7412 27.899)" fill="#F2A800"/>
<rect width="5.96968" height="21.4466" rx="2.98484" transform="matrix(-0.00957141 0.999954 0.999954 0.00957141 35.8721 20.7585)" fill="#0033A0"/>
<rect width="5.96968" height="21.4466" rx="2.98484" transform="matrix(0.842937 -0.538012 -0.538012 -0.842937 20.0639 27.899)" fill="#0033A0"/>
<rect x="23.9331" y="20.7585" width="5.96968" height="21.4466" rx="2.98484" transform="rotate(89.4516 23.9331 20.7585)" fill="#F2A800"/>
<rect x="33.9505" y="19.6936" width="5.96968" height="21.4466" rx="2.98484" transform="rotate(151 33.9505 19.6936)" fill="#D90012"/>
<rect width="5.96968" height="21.4466" rx="2.98484" transform="matrix(0.87462 0.48481 0.48481 -0.87462 25.8292 19.6936)" fill="#0033A0"/>
<rect x="36.0669" y="37.0521" width="5.96968" height="21.4466" rx="2.98484" transform="rotate(-90.5484 36.0669 37.0521)" fill="#0033A0"/>
<rect width="5.96968" height="21.4466" rx="2.98484" transform="matrix(-0.842937 0.538012 0.538012 0.842937 39.9361 29.9116)" fill="#D90012"/>
<rect width="5.96968" height="21.4466" rx="2.98484" transform="matrix(0.00957141 -0.999954 -0.999954 -0.00957141 24.1546 37.0521)" fill="#0033A0"/>
<rect x="20.2854" y="29.9116" width="5.96968" height="21.4466" rx="2.98484" transform="rotate(32.5484 20.2854 29.9116)" fill="#D90012"/>
</svg>
